<svg aria-hidden="true" style="position: absolute; width: 0; height: 0; overflow: hidden;" version="1.1" xmlns="http://www.w3.org/2000/svg" xmlns:xlink="http://www.w3.org/1999/xlink">
<defs>
<symbol id="icon-film" viewBox="0 0 32 32">
<path d="M30.335 26.445c-0.128-0.221-0.538-0.289-1.231-0.202-1.275 0.165-2.201-0.251-2.778-1.251-0.437-0.756-0.55-1.516-0.339-2.28s0.836-1.854 1.874-3.272l0.649-0.904c1.928-2.663 2.323-4.979 1.186-6.95-1.157-2.006-4.5-1.837-6.903-0.806-1.944-4.009-6.040-6.78-10.793-6.78-6.628 0-12 5.373-12 12s5.372 12 12 12c6.627 0 12-5.373 12-12 0-1.469-0.277-2.871-0.76-4.171 0.811-0.291 1.781-0.502 2.696-0.536 1.202-0.044 2.29 0.208 2.722 0.956 0.963 1.669 0.498 3.641-1.395 5.913l-0.388 0.466c-2.214 2.657-2.743 4.984-1.591 6.982 0.466 0.806 1.207 1.381 2.225 1.727 1.018 0.345 1.879 0.312 2.585-0.096 0.35-0.202 0.431-0.468 0.241-0.796zM6.5 18.562c-1.381 0-2.5-1.119-2.5-2.5 0-1.38 1.119-2.5 2.5-2.5s2.5 1.119 2.5 2.5c0 1.381-1.119 2.5-2.5 2.5zM12 24.062c-1.381 0-2.5-1.119-2.5-2.5s1.119-2.5 2.5-2.5 2.5 1.119 2.5 2.5-1.119 2.5-2.5 2.5zM11.020 16.062c0-0.552 0.449-1 1.001-1s1 0.447 1 1c0 0.553-0.448 1-1 1s-1.001-0.447-1.001-1zM12 13.062c-1.381 0-2.5-1.119-2.5-2.5s1.119-2.5 2.5-2.5 2.5 1.119 2.5 2.5c0 1.381-1.119 2.5-2.5 2.5zM17.5 18.562c-1.381 0-2.5-1.119-2.5-2.5 0-1.38 1.119-2.5 2.5-2.5s2.5 1.119 2.5 2.5c0 1.381-1.119 2.5-2.5 2.5z"></path>
</symbol>
<symbol id="icon-cogs" viewBox="0 0 32 32">
<path d="M21.268 22.039l0.709-0.709c0.783-0.783 0.783-2.053 0-2.836l-1.224-1.223c0.394-0.686 0.703-1.424 0.918-2.203h1.324c1.107 0 2.005-0.898 2.005-2.005v-1.002c0-1.107-0.897-2.005-2.005-2.005h-1.308c-0.208-0.771-0.503-1.505-0.887-2.186l1.177-1.176c0.783-0.783 0.783-2.053 0-2.836l-0.709-0.708c-0.783-0.783-2.053-0.783-2.836 0l-1.153 1.153c-0.705-0.411-1.467-0.731-2.272-0.951v-1.347c-0.001-1.108-0.899-2.005-2.006-2.005h-1.002c-1.107 0-2.006 0.897-2.006 2.005v1.347c-0.805 0.22-1.566 0.54-2.272 0.951l-1.154-1.154c-0.782-0.783-2.052-0.783-2.835 0l-0.709 0.708c-0.783 0.783-0.783 2.053 0 2.836l1.176 1.177c-0.383 0.681-0.68 1.415-0.887 2.187h-1.307c-1.108-0.001-2.005 0.897-2.005 2.005v1.002c0 1.107 0.897 2.005 2.005 2.005h1.323c0.216 0.779 0.524 1.517 0.919 2.203l-1.224 1.223c-0.783 0.783-0.783 2.053 0 2.836l0.709 0.709c0.783 0.783 2.053 0.783 2.835 0l1.231-1.231c0.684 0.389 1.419 0.692 2.194 0.903v1.284c0 1.106 0.898 2.005 2.006 2.005h1.002c1.107 0 2.005-0.898 2.005-2.005v-1.284c0.775-0.211 1.512-0.515 2.194-0.903l1.231 1.231c0.785 0.782 2.054 0.782 2.838-0.001zM12.5 18.107c-3.045 0-5.514-2.468-5.514-5.514s2.469-5.514 5.514-5.514 5.514 2.469 5.514 5.514c0 3.046-2.469 5.514-5.514 5.514zM12.5 10.025c-1.385 0-2.507 1.122-2.507 2.506s1.122 2.506 2.507 2.506c1.384 0 2.506-1.122 2.506-2.506s-1.122-2.506-2.506-2.506zM25.062 28.862c-0.672 0-1.216 0.544-1.216 1.216 0 0.671 0.544 1.215 1.216 1.215 0.671 0 1.216-0.544 1.216-1.215 0-0.672-0.545-1.216-1.216-1.216zM30.152 28.877h-0.634c-0.101-0.374-0.245-0.73-0.431-1.061l0.57-0.57c0.38-0.38 0.38-0.996 0-1.375l-0.344-0.344c-0.38-0.38-0.995-0.38-1.375 0l-0.56 0.559c-0.342-0.199-0.712-0.354-1.102-0.461v-0.652c0-0.537-0.436-0.973-0.973-0.973h-0.486c-0.537 0-0.973 0.436-0.973 0.973v0.652c-0.391 0.107-0.76 0.262-1.102 0.461l-0.56-0.559c-0.38-0.38-0.996-0.38-1.375 0l-0.344 0.344c-0.38 0.379-0.38 0.995 0 1.375l0.57 0.57c-0.187 0.33-0.33 0.687-0.431 1.061h-0.634c-0.537 0-0.973 0.436-0.973 0.973v0.486c0 0.537 0.436 0.973 0.973 0.973h0.642c0.104 0.377 0.254 0.735 0.445 1.068l-0.593 0.593c-0.38 0.38-0.38 0.995 0 1.376l0.344 0.344c0.379 0.379 0.995 0.379 1.375 0l0.597-0.598c0.332 0.188 0.688 0.336 1.064 0.438v0.623c0 0.537 0.436 0.973 0.973 0.973h0.486c0.537 0 0.973-0.436 0.973-0.973v-0.623c0.376-0.102 0.732-0.249 1.063-0.438l0.598 0.598c0.38 0.379 0.995 0.379 1.375 0l0.344-0.344c0.38-0.381 0.38-0.996 0-1.376l-0.593-0.593c0.19-0.333 0.341-0.691 0.445-1.068h0.642c0.537 0 0.973-0.436 0.973-0.973v-0.486c0.004-0.538-0.432-0.973-0.969-0.973zM25.062 32.782c-1.477 0-2.674-1.197-2.674-2.675 0-1.477 1.197-2.674 2.674-2.674s2.674 1.197 2.674 2.674c0 1.478-1.197 2.675-2.674 2.675z"></path>
</symbol>
<symbol id="icon-folder" viewBox="0 0 35 32">
<path d="M8.431 9.155h20.958c2.158 0 2.158-2.238 0.084-2.238h-14.486c-0.83 0-1.244-1.244-1.244-1.244s-0.581-1.825-1.743-1.825h-10.789c-1.576 0-1.162 1.825-1.162 1.825s2.407 20.47 2.573 21.715 1.453 1.612 1.453 1.612l2.821-18.103c0.208-1.327 1.12-1.7 1.535-1.742zM33.658 9.942h-24.563c-0.733 0-1.328 0.594-1.328 1.327l-2.572 16.4c0 0.734 0.595 1.328 1.328 1.328h24.563c0.732 0 1.328-0.594 1.328-1.328l2.572-16.4c0-0.733-0.593-1.327-1.328-1.327z"></path>
</symbol>
<symbol id="icon-gamepad" viewBox="0 0 33 32">
<path d="M23.014 4.459c-1.416 0-4.166 2-6.5 2s-5.25-2-6.5-2c-8.583 0-13.5 23.082-7.083 23.082 5.417 0 6.146-6.75 13.562-6.75 6 0 9.521 6.668 13.521 6.668 6.416 0 1.584-23-7-23zM9.513 17.459c-2.485 0-4.5-2.016-4.5-4.5s2.015-4.5 4.5-4.5 4.5 2.015 4.5 4.5c0 2.484-2.014 4.5-4.5 4.5zM21.451 14.959c-0.553 0-1-0.447-1-1s0.447-1 1-1 1 0.447 1 1-0.447 1-1 1zM24.514 17.959c-0.553 0-1-0.447-1-1s0.447-1 1-1 1 0.447 1 1-0.448 1-1 1zM24.514 11.959c-0.553 0-1-0.447-1-1s0.447-1 1-1 1 0.447 1 1-0.448 1-1 1zM27.514 14.959c-0.553 0-1-0.447-1-1s0.447-1 1-1 1 0.447 1 1-0.448 1-1 1zM9.513 10.459c-1.38 0-2.5 1.119-2.5 2.5s1.12 2.5 2.5 2.5c1.381 0 2.5-1.119 2.5-2.5s-1.119-2.5-2.5-2.5z"></path>
</symbol>
<symbol id="icon-trashcan" viewBox="0 0 32 32">
<path d="M8 26c0 1.656 1.343 3 3 3h10c1.656 0 3-1.344 3-3l2-16h-20l2 16zM19 13h2v13h-2v-13zM15 13h2v13h-2v-13zM11 13h2v13h-2v-13zM25.5 6h-6.5c0 0-0.448-2-1-2h-4c-0.553 0-1 2-1 2h-6.5c-0.829 0-1.5 0.671-1.5 1.5s0 1.5 0 1.5h22c0 0 0-0.671 0-1.5s-0.672-1.5-1.5-1.5z"></path>
</symbol>
<symbol id="icon-magnifier" viewBox="0 0 32 32">
<path d="M29.156 29.961l-0.709 0.709c-0.785 0.784-2.055 0.784-2.838 0l-5.676-5.674c-0.656-0.658-0.729-1.644-0.281-2.412l-3.104-3.102c-1.669 1.238-3.728 1.979-5.965 1.979-5.54 0-10.031-4.491-10.031-10.031s4.491-10.032 10.031-10.032c5.541 0 10.031 4.491 10.031 10.032 0 2.579-0.98 4.923-2.58 6.7l3.035 3.035c0.768-0.447 1.754-0.375 2.41 0.283l5.676 5.674c0.784 0.785 0.784 2.056 0.001 2.839zM18.088 11.389c0-4.155-3.369-7.523-7.524-7.523s-7.524 3.367-7.524 7.523 3.368 7.523 7.523 7.523 7.525-3.368 7.525-7.523z"></path>
</symbol>
<symbol id="icon-spaceinvaders" viewBox="0 0 33 32">
<path d="M29.963 24.982v-5.947h-2.91v5.969h-3.037v2.953h-7.048v-2.975h7.048v-2.972h-14.991v2.973l6.030 0.021v2.973h-6.051v-2.951h-3.036v-6.010h-2.911v5.947h-3.057v-9.004h2.995v-2.891h2.973v-3.057h3.057v-2.994h2.994v3.003l8.983 0.024v-3.027h2.994v3.036h3.057v2.974h2.953v2.973h3.014v8.982h-3.057zM12.019 13.005h-2.994v2.995h2.994v-2.995zM23.996 13.005h-2.994v2.995h2.994v-2.995zM5.968 4.023h3.057v2.994h-3.057v-2.994zM27.053 4.023v2.994h-3.057v-2.994h3.057z"></path>
</symbol>
<symbol id="icon-profile" viewBox="0 0 32 32">
<path d="M28 9h-1.958v-2.938l-4.042-0.062 0.021 3h-12.146l0.083-3-3.958 0.062v3l-2-0.062c-1.104 0-2 0.896-2 2v14c0 1.104 0.896 2 2 2h24c1.104 0 2-0.896 2-2v-14c0-1.104-0.896-2-2-2zM23 7h2v4h-2v-4zM10 13.812c1.208 0 2.188 1.287 2.188 2.875s-0.98 2.875-2.188 2.875-2.188-1.287-2.188-2.875 0.98-2.875 2.188-2.875zM7 7h2v4h-2v-4zM5.667 22.948c0 0 0.237-1.902 0.776-2.261s2.090-0.598 2.090-0.598 1.006 1.075 1.434 1.075c0.427 0 1.433-1.075 1.433-1.075s1.552 0.238 2.091 0.598c0.633 0.422 0.791 2.261 0.791 2.261h-8.615zM26 22h-9v-1h9v1zM26 20h-9v-1h9v1zM26 18h-9v-1h9v1zM26 16h-9v-1h9v1z"></path>
</symbol>
<symbol id="icon-envelope" viewBox="0 0 32 32">
<path d="M16.015 18.861l-4.072-3.343-8.862 10.463h25.876l-8.863-10.567-4.079 3.447zM29.926 6.019h-27.815l13.908 11.698 13.907-11.698zM20.705 14.887l9.291 11.084v-18.952l-9.291 7.868zM2.004 7.019v18.952l9.291-11.084-9.291-7.868z"></path>
</symbol>
<symbol id="icon-heart" viewBox="0 0 32 32">
<path d="M16.042 8.345c0 0-2-4.262-6.5-4.262-4.917 0-7.5 4.167-7.5 8.333 0 6.917 14 15.5 14 15.5s13.916-8.5 13.916-15.5c0-4.25-2.666-8.333-7.416-8.333s-6.5 4.262-6.5 4.262z"></path>
</symbol>
<symbol id="icon-book" viewBox="0 0 32 32">
<path d="M15 25.875v-19.625c0 0-2.688-2.25-6.5-2.25s-6.5 2-6.5 2v19.875c0 0 2.688-1.938 6.5-1.938s6.5 1.938 6.5 1.938zM29 25.875v-19.625c0 0-2.688-2.25-6.5-2.25s-6.5 2-6.5 2v19.875c0 0 2.688-1.938 6.5-1.938s6.5 1.938 6.5 1.938zM31 8h-1v19h-12v1h-5v-1h-12v-19h-1v20h12v1h7.062l-0.062-1h12v-20z"></path>
</symbol>
<symbol id="icon-star-o" viewBox="0 0 26 28">
<path d="M17.766 15.687l4.781-4.641-6.594-0.969-2.953-5.969-2.953 5.969-6.594 0.969 4.781 4.641-1.141 6.578 5.906-3.109 5.891 3.109zM26 10.109c0 0.281-0.203 0.547-0.406 0.75l-5.672 5.531 1.344 7.812c0.016 0.109 0.016 0.203 0.016 0.313 0 0.422-0.187 0.781-0.641 0.781-0.219 0-0.438-0.078-0.625-0.187l-7.016-3.687-7.016 3.687c-0.203 0.109-0.406 0.187-0.625 0.187-0.453 0-0.656-0.375-0.656-0.781 0-0.109 0.016-0.203 0.031-0.313l1.344-7.812-5.688-5.531c-0.187-0.203-0.391-0.469-0.391-0.75 0-0.469 0.484-0.656 0.875-0.719l7.844-1.141 3.516-7.109c0.141-0.297 0.406-0.641 0.766-0.641s0.625 0.344 0.766 0.641l3.516 7.109 7.844 1.141c0.375 0.063 0.875 0.25 0.875 0.719z"></path>
</symbol>
<symbol id="icon-arrow-left" viewBox="0 0 25 28">
<path d="M24 14v2c0 1.062-0.703 2-1.828 2h-11l4.578 4.594c0.375 0.359 0.594 0.875 0.594 1.406s-0.219 1.047-0.594 1.406l-1.172 1.188c-0.359 0.359-0.875 0.578-1.406 0.578s-1.047-0.219-1.422-0.578l-10.172-10.187c-0.359-0.359-0.578-0.875-0.578-1.406s0.219-1.047 0.578-1.422l10.172-10.156c0.375-0.375 0.891-0.594 1.422-0.594s1.031 0.219 1.406 0.594l1.172 1.156c0.375 0.375 0.594 0.891 0.594 1.422s-0.219 1.047-0.594 1.422l-4.578 4.578h11c1.125 0 1.828 0.938 1.828 2z"></path>
</symbol>
<symbol id="icon-arrow-right" viewBox="0 0 23 28">
<path d="M23 15c0 0.531-0.203 1.047-0.578 1.422l-10.172 10.172c-0.375 0.359-0.891 0.578-1.422 0.578s-1.031-0.219-1.406-0.578l-1.172-1.172c-0.375-0.375-0.594-0.891-0.594-1.422s0.219-1.047 0.594-1.422l4.578-4.578h-11c-1.125 0-1.828-0.938-1.828-2v-2c0-1.062 0.703-2 1.828-2h11l-4.578-4.594c-0.375-0.359-0.594-0.875-0.594-1.406s0.219-1.047 0.594-1.406l1.172-1.172c0.375-0.375 0.875-0.594 1.406-0.594s1.047 0.219 1.422 0.594l10.172 10.172c0.375 0.359 0.578 0.875 0.578 1.406z"></path>
</symbol>
<symbol id="icon-linkedin-square" viewBox="0 0 24 28">
<path d="M3.703 22.094h3.609v-10.844h-3.609v10.844zM7.547 7.906c-0.016-1.062-0.781-1.875-2.016-1.875s-2.047 0.812-2.047 1.875c0 1.031 0.781 1.875 2 1.875h0.016c1.266 0 2.047-0.844 2.047-1.875zM16.688 22.094h3.609v-6.219c0-3.328-1.781-4.875-4.156-4.875-1.937 0-2.797 1.078-3.266 1.828h0.031v-1.578h-3.609s0.047 1.016 0 10.844v0h3.609v-6.062c0-0.313 0.016-0.641 0.109-0.875 0.266-0.641 0.859-1.313 1.859-1.313 1.297 0 1.813 0.984 1.813 2.453v5.797zM24 6.5v15c0 2.484-2.016 4.5-4.5 4.5h-15c-2.484 0-4.5-2.016-4.5-4.5v-15c0-2.484 2.016-4.5 4.5-4.5h15c2.484 0 4.5 2.016 4.5 4.5z"></path>
</symbol>
<symbol id="icon-github-square" viewBox="0 0 24 28">
<path d="M8.109 18.75v0c0.031-0.047 0.016-0.141-0.047-0.203-0.078-0.063-0.172-0.078-0.219-0.031-0.031 0.047-0.016 0.141 0.047 0.203 0.078 0.063 0.172 0.078 0.219 0.031zM7.672 18.109c-0.047-0.063-0.125-0.094-0.187-0.063-0.047 0.031-0.047 0.125 0 0.187 0.063 0.078 0.141 0.109 0.187 0.078v0c0.047-0.031 0.047-0.125 0-0.203zM7.031 17.484v0c0.016-0.031-0.016-0.094-0.078-0.125-0.047-0.016-0.109-0.016-0.125 0.031-0.031 0.047 0 0.094 0.063 0.125 0.063 0.016 0.125 0.016 0.141-0.031zM7.359 17.844v0c0.031-0.031 0.031-0.109-0.031-0.156-0.047-0.063-0.125-0.078-0.156-0.047-0.047 0.047-0.031 0.109 0.016 0.172 0.047 0.047 0.125 0.078 0.172 0.031zM8.703 19.016v0c0.016-0.063-0.047-0.141-0.141-0.172s-0.172 0-0.203 0.063c-0.016 0.063 0.047 0.141 0.141 0.172s0.172 0 0.203-0.063zM9.359 19.063v0c0-0.063-0.078-0.125-0.187-0.125-0.094 0-0.156 0.063-0.156 0.125s0.078 0.125 0.172 0.125 0.172-0.063 0.172-0.125zM9.969 18.953v0c-0.016-0.063-0.109-0.094-0.203-0.078s-0.156 0.078-0.141 0.141 0.094 0.109 0.187 0.094 0.156-0.094 0.156-0.156zM20 14c0-4.422-3.578-8-8-8s-8 3.578-8 8c0 3.531 2.297 6.531 5.469 7.594 0.406 0.078 0.547-0.172 0.547-0.391 0-0.187 0-0.812-0.016-1.484 0 0-2.219 0.484-2.688-0.953 0 0-0.359-0.922-0.891-1.156 0 0-0.719-0.5 0.063-0.5 0 0 0.781 0.063 1.219 0.828 0.703 1.234 1.875 0.875 2.328 0.672 0.078-0.516 0.281-0.875 0.516-1.078-1.781-0.203-3.656-0.891-3.656-3.953 0-0.875 0.313-1.578 0.828-2.141-0.078-0.203-0.359-1.016 0.078-2.125 0.672-0.203 2.203 0.828 2.203 0.828 0.641-0.187 1.313-0.266 2-0.266s1.359 0.078 2 0.266c0 0 1.531-1.031 2.203-0.828 0.438 1.109 0.156 1.922 0.078 2.125 0.516 0.562 0.828 1.266 0.828 2.141 0 3.078-1.875 3.75-3.656 3.953 0.281 0.25 0.547 0.734 0.547 1.484 0 1.062-0.016 1.922-0.016 2.188 0 0.219 0.141 0.469 0.547 0.391 3.172-1.062 5.469-4.062 5.469-7.594zM24 6.5v15c0 2.484-2.016 4.5-4.5 4.5h-15c-2.484 0-4.5-2.016-4.5-4.5v-15c0-2.484 2.016-4.5 4.5-4.5h15c2.484 0 4.5 2.016 4.5 4.5z"></path>
</symbol>
</defs>
</svg>
